<svg version="1.1" xmlns="http://www.w3.org/2000/svg" x="0" y="0" viewBox="0 0 512 512" xml:space="preserve">
    <g fill="#bfab92">
        <path d="M396.02 80.84v350.555l-70.01 40.303-140.02-80.841V40.303L255.999 0z"/>
        <path d="M326.01 148.218v323.48L255.999 512 115.98 431.16V107.68l70.01-40.303z"/>
    </g>
    <path fill="#ede6de" d="M115.98 107.68l140.019 80.84 70.011-40.302-140.02-80.841z"/>
    <path fill="#d9ccbc" d="M115.98 107.68v323.48L255.999 512V188.52z"/>
    <path fill="#a78967" d="M302.673 148.218l-46.674 26.946-116.683-67.367L185.99 80.85z"/>
    <path d="M203.492 118.09v-7.382c.003-2.442-1.599-4.884-4.809-6.737-6.418-3.705-16.919-3.705-23.337 0-3.21 1.854-4.816 4.296-4.817 6.737v7.382c-.004 2.442 1.597 4.883 4.803 6.734 6.41 3.701 16.912 3.701 23.337 0 3.215-1.851 4.822-4.292 4.823-6.734z" fill="#d9ccbc"/>
    <path d="M175.346 103.971c-6.418 3.705-6.424 9.765-.014 13.466 6.41 3.701 16.912 3.701 23.337 0 6.425-3.701 6.431-9.76.014-13.466s-16.919-3.705-23.337 0z" fill="#fff"/>
    <path d="M237.349 137.76v-7.382c.003-2.442-1.599-4.884-4.809-6.737-6.418-3.705-16.919-3.705-23.337 0-3.21 1.853-4.816 4.296-4.817 6.737v7.382c-.004 2.442 1.597 4.883 4.803 6.734 6.41 3.701 16.912 3.701 23.337 0 3.215-1.851 4.822-4.292 4.823-6.734z" fill="#d9ccbc"/>
    <path d="M209.203 123.642c-6.418 3.705-6.424 9.765-.014 13.466 6.41 3.701 16.912 3.701 23.337 0 6.425-3.701 6.431-9.76.014-13.466-6.418-3.706-16.919-3.706-23.337 0z" fill="#fff"/>
    <path d="M271.206 157.431v-7.382c.003-2.442-1.599-4.884-4.809-6.737-6.418-3.705-16.919-3.705-23.337 0-3.21 1.854-4.816 4.296-4.817 6.737v7.382c-.004 2.442 1.597 4.883 4.803 6.734 6.411 3.701 16.912 3.701 23.337 0 3.215-1.851 4.822-4.292 4.823-6.734z" fill="#d9ccbc"/>
    <path d="M243.06 143.311c-6.418 3.705-6.424 9.765-.014 13.466 6.411 3.701 16.912 3.701 23.337 0 6.425-3.701 6.431-9.76.014-13.466-6.417-3.704-16.919-3.704-23.337 0z" fill="#fff"/>
    <path fill="#bfab92" d="M150.746 114.396l35.244-20.072V80.85l-46.674 26.947z"/>
    <path fill="#d9ccbc" d="M185.99 94.324l105.013 60.629 11.67-6.735L185.99 80.85z"/>
    <path fill="#ede6de" d="M185.99 40.303l140.02 80.84 70.01-40.303L255.999 0z"/>
    <path fill="#d9ccbc" d="M185.99 40.303v27.064l140.02 80.84v-27.064z"/>
    <path fill="#a78967" d="M372.683 80.84l-46.673 26.947L209.327 40.42l46.672-26.947z"/>
    <path fill="#bfab92" d="M220.756 47.02l35.243-20.073V13.473L209.327 40.42z"/>
    <path fill="#d9ccbc" d="M255.999 26.947l105.015 60.63 11.669-6.737-116.684-67.367z"/>
    <path fill="#5e4c36" d="M244.331 181.783l.074 323.686-23.41-13.561V168.369z"/>
    <g fill="#59a4ff">
        <path d="M191.822 300.962l.001.001v24.351l-11.667-6.737v-24.366l11.667 6.737v.012zM191.823 274.054v-.013l-11.667-6.736v24.366l11.667 6.737v-24.352h-.001zM191.823 247.148v-.013l-11.667-6.737v24.366l11.667 6.736v-24.35h-.001zM174.321 371.836l-.001-.001.001-.002v-.012l-11.668-6.738v24.407l11.668 6.736zM191.823 354.774v-.013l-11.667-6.736v24.639l11.667 6.736v-24.623l-.001-.001zM191.823 327.868v-.014l-11.667-6.736v24.366l11.667 6.737V327.87h-.001zM180.156 210.951l11.667 6.736v-24.35l-.001-.001.001-.002v-.013l-11.667-6.736zM145.151 190.709l11.668 6.737v-24.351h-.001l.001-.002v-.014l-11.668-6.736zM127.648 180.589l11.668 6.737v-24.351l-.001-.001.001-.002v-.013l-11.668-6.737zM191.823 220.241v-.013l-11.667-6.737v24.366l11.667 6.737v-24.351h-.001zM139.316 214.232v-24.351l-.001-.001.001-.001v-.013l-11.668-6.737v24.366zM162.653 200.83l11.668 6.736v-24.35l-.001-.001.001-.002v-.013l-11.668-6.736zM156.819 361.715l-.001-.001.001-.001v-.013l-11.668-6.738v24.407l11.668 6.736zM174.321 344.653v-.013l-11.668-6.737v24.64l11.668 6.736v-24.623l-.001-.001zM174.321 237.027v-.013l-11.668-6.736v24.365l11.668 6.737v-24.35l-.001-.001zM174.321 290.84v-.013l-11.668-6.737v24.366l11.668 6.737v-24.35l-.001-.001zM156.819 359.158v-24.623l-.001-.001.001-.001v-.013l-11.668-6.737v24.639zM174.321 317.747v-.013l-11.668-6.737v24.366l11.668 6.737v-24.35l-.001-.001zM191.823 381.954v-.014l-11.667-6.736v24.407l11.667 6.736v-24.391h-.001zM139.316 241.138v-24.35h-.001l.001-.002v-.014l-11.668-6.736v24.366zM174.321 263.933v-.013l-11.668-6.736v24.366l11.668 6.737v-24.351h-.001zM156.819 305.072v-24.351h-.001l.001-.002v-.012l-11.668-6.738v24.366zM162.653 227.736l11.668 6.737v-24.351h-.001l.001-.002v-.013l-11.668-6.737zM156.819 278.166v-24.351h-.001l.001-.002v-.014l-11.668-6.736v24.366zM156.819 331.979v-24.35l-.001-.001.001-.001v-.014l-11.668-6.737v24.367zM156.819 251.259v-24.35l-.001-.001.001-.001v-.014l-11.668-6.736v24.366zM145.151 217.615l11.668 6.738v-24.351l-.001-.001.001-.001v-.014l-11.668-6.737zM139.316 160.418v-25.737l-11.668-6.674v25.675zM197.658 196.705v24.366l11.669 6.737v-24.367zM197.658 277.425v24.366l11.669 6.736v-24.366zM191.823 190.781v-25.737l-11.667-6.675v25.675zM197.658 250.518v24.367l11.669 6.736v-24.366zM197.658 223.612v24.366l11.669 6.737v-24.366zM174.321 180.66v-25.737l-11.668-6.675v25.675zM209.327 200.901v-25.737l-11.669-6.674v25.675zM156.819 170.539v-25.737l-11.668-6.674v25.675zM197.658 439.219v25.5l11.669 6.737v-25.501zM174.32 425.728l.001-.002v-.012l-11.668-6.737v25.5l11.668 6.737v-25.485zM191.822 435.849l.001-.001v-.013l-11.667-6.737v25.5l11.667 6.737V435.85zM139.315 405.487l.001-.002v-.012l-11.668-6.737v25.5l11.668 6.737v-25.484zM156.818 415.608l.001-.002v-.013l-11.668-6.737v25.5l11.668 6.738v-25.486zM139.316 349.038v-24.624h-.001l.001-.002v-.013l-11.668-6.737v24.64zM139.316 268.045v-24.351h-.001l.001-.002v-.012l-11.668-6.737v24.365zM139.316 375.985v-24.391l-.001-.001.001-.002v-.012l-11.668-6.737v24.406zM139.316 378.541l-.001-.001.001-.001v-.013l-11.668-6.737v24.406l11.668 6.737zM139.316 294.952V270.6h-.001l.001-.002v-.012l-11.668-6.737v24.367zM139.316 321.858v-24.35l-.001-.001.001-.002v-.013l-11.668-6.736v24.366zM156.819 388.661h-.001l.001-.002v-.012l-11.668-6.737v24.406l11.668 6.737zM197.658 385.325v24.406l11.669 6.736v-24.406zM197.658 304.331v24.367l11.669 6.737v-24.366zM174.321 398.783l-.001-.001.001-.002v-.012l-11.668-6.738v24.406l11.668 6.738zM197.658 331.238v24.367l11.669 6.736v-24.366zM197.658 358.145v24.64l11.669 6.736v-24.64zM209.327 419.009l-11.669-6.737v24.406l11.669 6.736zM191.823 408.903h-.001l.001-.002v-.013l-11.667-6.737v24.406l11.667 6.736z"/>
    </g>
    <g fill="#2487ff">
        <path d="M372.683 376.173l11.669-6.738v-24.406l-11.669 6.737zM366.849 382.082l-11.668 6.736v24.406l11.668-6.737zM372.683 349.226l11.669-6.737V317.85l-11.669 6.737zM302.673 418.844l.001.003h-.001v24.246l11.669-6.738v-24.406l-11.669 6.737zM372.683 295.139l11.669-6.736v-24.367l-11.669 6.737zM349.346 338.06l-11.668 6.736v24.64l11.668-6.736zM349.346 392.186l-11.668 6.737v24.406l11.668-6.736zM349.346 365.24l-11.668 6.736v24.406l11.668-6.736zM366.849 136.902v-25.736l-11.668 6.673v25.8zM384.352 126.797V101.06l-11.669 6.675v25.799zM349.346 311.153l-11.668 6.737v24.366l11.668-6.737zM372.683 268.233l11.669-6.738v-24.366l-11.669 6.738zM349.346 147.007v-25.736l-11.668 6.674v25.798zM372.683 160.606l11.669-6.736v-24.533l-11.669 6.737zM372.683 187.513l11.669-6.737V156.41l-11.669 6.736zM372.683 241.325l11.669-6.736v-24.366l-11.669 6.737zM372.683 214.419l11.669-6.737v-24.366l-11.669 6.737zM372.683 322.046l11.669-6.737v-24.366l-11.669 6.736zM349.346 284.246l-11.668 6.737v24.367l11.668-6.737zM355.181 332.151l11.668-6.737v-24.367l-11.667 6.736v.002h-.001zM355.181 334.691v24.639l11.668-6.737v-24.639zM355.181 253.972v24.366l11.668-6.738v-24.366zM355.181 280.878v24.365l11.668-6.736v-24.366zM355.181 386.278l11.668-6.738v-24.407l-11.667 6.737v.001h-.001zM372.683 403.119l11.669-6.737v-24.406l-11.669 6.737zM349.346 149.548l-11.668 6.737v24.531l11.668-6.737zM355.181 227.064v24.367l11.668-6.737v-24.366zM355.181 200.158v24.366l11.668-6.736v-24.366zM349.346 230.433l-11.668 6.737v24.366l11.668-6.737zM349.346 257.34l-11.668 6.736v24.366l11.668-6.736zM349.346 203.527l-11.668 6.736v24.367l11.668-6.737zM355.181 197.618l11.668-6.738v-24.365l-11.668 6.737zM349.346 176.62l-11.668 6.736v24.367l11.668-6.737zM355.181 170.711l11.668-6.737v-24.531l-11.668 6.736zM302.673 445.633v.159l.001.002h-.001v25.339l11.669-6.737v-25.5zM302.673 257.092l.001.001-.001.001v24.205l11.669-6.737v-24.366l-11.669 6.736zM302.673 283.998l.001.002h-.001v24.206l11.669-6.737v-24.366l-11.669 6.736zM296.839 422.215l-11.668 6.738v.158l.001.002-.001.001v24.245l11.668-6.737zM302.673 203.278l.001.002h-.001v24.206l11.669-6.737v-24.366l-11.669 6.736zM302.673 310.905l.001.002h-.001v24.205l11.669-6.737v-24.366l-11.669 6.737zM302.673 391.898l.001.002-.001.001v24.244l11.669-6.736v-24.407l-11.669 6.737zM302.673 364.718l.001.001-.001.001v24.478l11.669-6.736v-24.64l-11.669 6.738zM302.673 337.812l.001.001-.001.001v24.204l11.669-6.736v-24.366l-11.669 6.736zM302.673 230.186l.001.001-.001.001v24.204l11.669-6.737v-24.366l-11.669 6.737zM337.678 425.869v25.501l11.668-6.737v-25.5zM314.342 193.842v-25.675l-11.669 6.675v25.737zM372.683 405.66v25.5l11.669-6.737v-25.5zM285.171 455.899v.159l.001.002h-.001v25.339l11.668-6.737v-25.5zM355.181 415.764v25.501l11.668-6.736v-25.501zM296.839 204.109v-25.676l-11.668 6.675v25.737zM279.336 214.375V188.7l-11.668 6.675v25.737zM267.668 466.165v25.501l11.668-6.737v-25.5zM285.171 240.451l.001.002-.001.001v24.204l11.668-6.736v-24.367l-11.668 6.737zM285.171 348.077l.001.002-.001.001v24.206l11.668-6.738v-24.366l-11.668 6.737zM285.171 321.171l.001.002-.001.001v24.204l11.668-6.736v-24.367l-11.668 6.737zM285.171 294.264l.001.003-.001.001v24.204l11.668-6.737v-24.366l-11.668 6.737zM279.336 216.915l-11.668 6.737v24.366l11.668-6.737zM285.171 267.358l.001.002h-.001v24.205l11.668-6.737v-24.365l-11.668 6.736zM279.336 432.482l-11.668 6.737v24.406l11.668-6.737zM285.171 237.752l11.668-6.737v-24.366l-11.668 6.737v.158l.001.002h-.001zM285.171 402.164l.001.002-.001.001v24.245l11.668-6.737v-24.407l-11.668 6.738zM285.171 374.984l.001.002-.001.001v24.479l11.668-6.738v-24.639l-11.668 6.737zM279.336 378.355l-11.668 6.737v24.639l11.668-6.737zM279.336 405.534l-11.668 6.738v24.406l11.668-6.737zM279.336 351.448l-11.668 6.738v24.366l11.668-6.737zM279.336 270.729l-11.668 6.737v24.366l11.668-6.737zM279.336 324.542l-11.668 6.736v24.366l11.668-6.736zM279.336 243.822l-11.668 6.737v24.366l11.668-6.736zM279.336 297.635l-11.668 6.737v24.366l11.668-6.736z"/>
    </g>
    <g fill="#59a4ff">
        <path d="M220.995 195.375l.001 26.928 23.409 13.534-.071-26.99zM220.995 235.795l.001 26.929 23.409 13.534-.071-26.991zM220.995 276.215l.001 26.929 23.409 13.534-.071-26.991zM220.995 316.636l.001 26.928 23.409 13.535-.071-26.992zM220.995 357.056l.001 26.928 23.409 13.535-.071-26.991zM220.995 397.476l.001 26.928 23.409 13.535-.071-26.991zM220.995 437.896l.001 26.93 23.409 13.533-.071-26.991z"/>
    </g>
    <path fill="#fff" d="M276.777 45.802l23.336-13.473 49.233 28.324v26.934L326.01 101.06l-49.233-28.323z"/>
    <path fill="#d9ccbc" d="M276.777 45.802v26.935l49.233 28.323V74.126z"/>
    <path fill="#bfab92" d="M326.01 101.06l23.336-13.473V60.653L326.01 74.126z"/>
    <path d="M270.518 47.144v-7.382c.003-2.442-1.599-4.884-4.809-6.737-6.418-3.705-16.919-3.705-23.337 0-3.21 1.854-4.816 4.296-4.817 6.737v7.382c-.004 2.442 1.597 4.883 4.803 6.734 6.41 3.701 16.912 3.701 23.337 0 3.215-1.85 4.822-4.292 4.823-6.734z" fill="#d9ccbc"/>
    <path d="M242.373 33.025c-6.418 3.705-6.424 9.765-.014 13.466 6.41 3.701 16.912 3.701 23.337 0 6.425-3.701 6.431-9.76.014-13.466-6.418-3.705-16.919-3.705-23.337 0z" fill="#fff"/>
</svg>
