<svg version="1.1" xmlns="http://www.w3.org/2000/svg" x="0" y="0" viewBox="0 0 512 512" xml:space="preserve">
    <path fill="#378b4f" d="M256.958 138.14l-78.49-45.317-19.623 11.329 19.623 33.988 78.49 45.315z"/>
    <path fill="#c6c5cb" d="M231.734 450.936l25.225-14.564 25.224 14.643v46.421L256.959 512l-25.225-14.564z"/>
    <path fill="#acabb1" d="M231.734 450.936v46.5L256.959 512v-46.5z"/>
    <g fill="#898890">
        <path d="M256.959 465.5l25.224-14.485v46.421L256.959 512zM262.475 16.062v-.005h-.001c-.002-.815-.537-1.631-1.606-2.252-2.145-1.246-5.66-1.248-7.811-.006-1.075.621-1.613 1.439-1.614 2.257v435.107c-.001.818.536 1.635 1.609 2.255 2.148 1.24 5.662 1.242 7.811.006 1.077-.621 1.614-1.441 1.612-2.261V16.066v-.004z"/>
    </g>
    <path d="M253.053 18.324c-2.148-1.24-2.148-3.275 0-4.52 2.148-1.247 5.662-1.246 7.809.001 2.147 1.247 2.147 3.281 0 4.52-2.147 1.239-5.661 1.239-7.809-.001z" fill="#acabb1"/>
    <circle cx="256.958" cy="8.031" r="8.031" fill="#898890"/>
    <path fill="#378b4f" d="M257.828 24.847v45.317l87.359 50.436 20.567-10.784-19.623-33.987z"/>
    <path fill="#2b743f" d="M254.171 81.495v45.315l-87.358 50.437-20.567-10.785 19.623-33.987z"/>
</svg>
