<svg version="1.1" xmlns="http://www.w3.org/2000/svg" x="0" y="0" viewBox="0 0 512.002 512.002" xml:space="preserve">
    <path d="M109.979 169.357v-.004c.008-.982-.63-1.962-1.92-2.707-2.583-1.491-6.837-1.491-9.454 0-1.309.746-1.971 1.73-1.98 2.714v55.755c-.01.983.63 1.966 1.922 2.712 2.586 1.493 6.84 1.493 9.454 0 1.306-.746 1.967-1.729 1.978-2.712V169.357z" fill="#57565c"/>
    <path d="M380.235 12.897v-.004c.008-.982-.63-1.962-1.92-2.707-2.583-1.491-6.837-1.491-9.454 0-1.309.746-1.971 1.73-1.98 2.714v55.755c-.01.983.63 1.966 1.922 2.712 2.586 1.493 6.84 1.493 9.454 0 1.306-.746 1.967-1.729 1.978-2.712v-.001-55.757z" fill="#3e3d43"/>
    <g fill="#77767e">
        <path d="M413.978 420.493a3.593 3.593 0 0 1-2.46-.97l-107.751-100.62-44.999 99.14a3.607 3.607 0 0 1-6.568-2.98l47.073-103.712a3.606 3.606 0 0 1 5.744-1.145l111.419 104.045a3.604 3.604 0 0 1 .174 5.095 3.568 3.568 0 0 1-2.632 1.147zM379.903 12.082c.02-.083.032-.166.045-.249.016-.105.032-.209.039-.314.006-.088.007-.175.007-.263 0-.103-.003-.205-.012-.308-.007-.088-.02-.173-.033-.26a3.439 3.439 0 0 0-.244-.84 3.363 3.363 0 0 0-.117-.25c-.021-.04-.034-.082-.057-.122-.028-.048-.064-.091-.094-.138a3.48 3.48 0 0 0-.157-.231 3.802 3.802 0 0 0-.198-.239c-.059-.066-.117-.131-.181-.193a3.425 3.425 0 0 0-.25-.216c-.045-.037-.084-.079-.133-.114-.022-.015-.045-.026-.067-.04a3.478 3.478 0 0 0-.292-.176c-.07-.039-.138-.082-.21-.117-.108-.052-.221-.092-.335-.133-.066-.024-.13-.054-.197-.073a3.84 3.84 0 0 0-.476-.103c-.026-.004-.05-.012-.076-.015a3.595 3.595 0 0 0-1.146.033L256.28 30.599a3.605 3.605 0 1 0 1.357 7.083l105.604-20.23-109.6 90.521a3.606 3.606 0 0 0 4.592 5.56l84.898-70.12-23.613 26.685a3.604 3.604 0 0 0 2.699 5.995c.996 0 1.989-.411 2.701-1.217l40.596-45.874-46.649 118.081a3.605 3.605 0 1 0 6.706 2.649l54.182-137.149c.022-.055.031-.11.049-.166a3.23 3.23 0 0 0 .101-.335z"/>
    </g>
    <g fill="#898890">
        <path d="M322.213 76.093a3.592 3.592 0 0 1-1.806-.487l-66.143-38.347a3.606 3.606 0 0 1 3.618-6.238l66.143 38.347a3.606 3.606 0 0 1-1.812 6.725z"/>
        <path d="M418.253 415.313l-34.624-71.392a3.67 3.67 0 0 0-.239-.527c-.013-.024-.02-.049-.033-.073-.018-.03-.041-.053-.059-.081l-28.633-59.042c-.012-.038-.035-.074-.049-.112-.037-.101-.086-.196-.132-.294-.042-.089-.07-.18-.121-.267-.022-.038-.053-.068-.075-.105l-28.466-58.696V72.486c0-.052-.012-.101-.014-.151a3.788 3.788 0 0 0-.042-.44c-.013-.079-.032-.157-.049-.234a3.554 3.554 0 0 0-.394-.985c-.039-.068-.075-.137-.119-.202a3.537 3.537 0 0 0-.278-.351c-.038-.044-.068-.095-.108-.137L258.536 1.105a3.606 3.606 0 0 0-5.197 4.999l63.086 65.562-62.29 35.963a3.607 3.607 0 0 0 .021 6.257l60.853 34.573-60.321 35.44a3.605 3.605 0 0 0 .002 6.219l60.365 35.414-60.789 35.2a3.609 3.609 0 0 0-1.78 2.747 3.61 3.61 0 0 0 1.176 3.055l21.959 19.736-22.989 52.639c-.05.115-.082.234-.119.351-.021.064-.047.124-.064.188-.055.209-.09.419-.106.632-.004.053.002.105 0 .159-.005.162-.004.322.012.482.008.081.025.161.039.242.024.136.053.269.091.402a3.511 3.511 0 0 0 .268.658c.023.044.035.091.06.134.013.023.029.041.042.064.033.055.071.106.107.159a3.57 3.57 0 0 0 .341.43c.095.102.194.196.298.284.025.022.044.046.07.067l26.124 21.078-26.475 50.646c-.007.013-.01.029-.018.042-.057.112-.096.23-.14.346-.039.103-.085.203-.114.307-.029.101-.04.205-.06.308-.023.122-.052.243-.062.366-.009.104-.001.209-.001.313 0 .122-.003.243.009.364.011.107.037.211.058.317.024.12.045.239.08.355.03.097.071.191.109.285.05.126.102.248.166.368.018.033.026.067.044.1.058.1.125.192.191.284.023.032.042.067.066.099.124.163.262.31.408.447.033.031.068.059.102.088.138.12.284.229.437.325.021.012.036.03.057.042l36.167 21.808-37.431 65.15a3.604 3.604 0 0 0 3.123 5.402c1.249 0 2.463-.65 3.13-1.811l77.156-134.292 76.407 44.113c1.373.792 3.1.596 4.259-.483a3.605 3.605 0 0 0 .79-4.215zm-75.569-44.346l33.119-19.121-4.262 35.782-28.857-16.661zm-55.123-6.018l.009-.018 27.706-53 57.736 33.198-107.552 62.095 22.101-42.275zm14.313-120.772l43.346 40.464-81.591 47.107 38.245-87.571zm16.737 5.76l-11.986-11.189 11.986-6.94v18.129zm28.628 41.866l-1.76 29.177-24.439-14.052 26.199-15.125zm6.769 7.565l17.832 36.769-19.376-11.141 1.544-25.628zm-14.524-29.947l-13.662-12.752v-15.416l13.662 28.168zm-20.873-50.163l-24.563-14.411 24.563-42.89v57.301zm-55.42-108.531l49.121-28.358-24.56 42.312-24.561-13.954zm30.831 17.516l24.589-42.362v56.332l-24.589-13.97zm18.323 30.147l-24.518 42.808-24.19-14.192 48.708-28.616zm-50.172 106.098l30.735-17.797-14.245 32.617-16.49-14.82zm.119 76.36l42.584-24.586-21.673 41.458-20.911-16.872zm1.318 75.772l62.061-35.831-31.258 54.405-30.803-18.574zm114.727-25.07l4.018-33.734 24.284 50.074-28.302-16.34z"/>
        <path d="M189.788 76.093a3.608 3.608 0 0 1-1.812-6.726l66.143-38.347a3.61 3.61 0 0 1 4.928 1.31 3.608 3.608 0 0 1-1.31 4.928l-66.143 38.347a3.583 3.583 0 0 1-1.806.488zM96.994 420.493a3.604 3.604 0 0 1-2.462-6.24l111.419-104.045a3.602 3.602 0 0 1 3.166-.901 3.613 3.613 0 0 1 2.579 2.046l47.073 103.712a3.606 3.606 0 1 1-6.567 2.98l-44.999-99.14L99.454 419.521a3.59 3.59 0 0 1-2.46.972z"/>
    </g>
    <path d="M259.659 340.08a3.643 3.643 0 0 0-.106-.632c-.016-.064-.044-.125-.064-.188-.037-.117-.07-.236-.12-.351l-.125-.286.066-73.539a3.597 3.597 0 0 0 .205-1.605 3.564 3.564 0 0 0-.203-.862l.134-150.632c.141-.386.224-.796.225-1.221.001-.43-.08-.847-.223-1.238l.094-105.027c.311-1.217-.007-2.559-.977-3.492a3.591 3.591 0 0 0-2.591-1.003l-.033-.003h-.003a3.591 3.591 0 0 0-3.058 1.716l-65.692 68.271c-.041.042-.07.093-.108.137a3.567 3.567 0 0 0-.278.351c-.044.065-.08.134-.119.202a3.445 3.445 0 0 0-.279.594 3.62 3.62 0 0 0-.206 1.064c-.002.052-.014.101-.014.151v152.238l-28.466 58.696c-.024.037-.054.067-.075.105-.049.087-.078.178-.121.267-.046.098-.095.193-.132.294-.014.038-.036.074-.049.112l-28.633 59.042c-.018.029-.041.052-.059.081-.013.024-.02.049-.033.073a3.67 3.67 0 0 0-.239.527l-34.624 71.392a3.605 3.605 0 0 0 5.048 4.696l76.407-44.113 77.156 134.292c.028.047.062.09.091.136a3.81 3.81 0 0 0 .467.594c.008.008.014.018.023.026a3.566 3.566 0 0 0 .601.476c.153.099.313.186.479.261.028.012.054.028.082.04a3.585 3.585 0 0 0 .735.212c.215.04.433.067.652.067.216 0 .434-.027.65-.067.044-.008.089-.016.132-.026a3.55 3.55 0 0 0 .6-.186c.027-.011.052-.027.078-.038.112-.05.225-.101.333-.163.037-.022.065-.05.101-.072.108-.068.209-.143.309-.221.091-.07.18-.139.263-.216.082-.077.156-.163.23-.247.08-.091.161-.18.23-.278.065-.091.118-.188.175-.283.06-.103.121-.204.17-.312.047-.103.082-.21.12-.318.039-.113.078-.226.106-.342.025-.105.039-.212.055-.32.019-.131.035-.261.04-.394.001-.04.012-.077.012-.117l.148-166.358.007-.016c.072-.137.136-.276.19-.42a3.438 3.438 0 0 0 .169-.64c.013-.081.031-.161.039-.242.017-.16.018-.32.012-.482-.006-.058 0-.11-.004-.163zm-73.328 40.709l62.061 35.831-30.803 18.574-31.258-54.405zm-45.87 6.839l-4.262-35.782 33.119 19.121-28.857 16.661zm-1.471-42.498l57.736-33.198 27.71 53.007.001.001 22.105 42.285L138.99 345.13zm68.137-28.868l42.584 24.586-20.911 16.873-21.673-41.459zm-40.605 4.719l-1.758-29.177 26.198 15.126-24.44 14.051zm65.684 43.257l19.817-15.99-.048 53.808-19.769-37.818zm-65.425-79.597l43.346-40.464 38.245 87.571-81.591-47.107zm57.888-151.904l.066-.037.007-.004 27.488-15.617-.057 63.802-55.181-32.42 27.677-15.724zm-.418-8.056l-24.56-42.312 49.12 28.358-24.56 13.954zm24.114 62.326l-24.19 14.192-24.517-42.808 48.707 28.616zm-30.41 17.841l-24.563 14.411v-57.3l24.563 42.889zm-24.563 45.089v-18.129l11.986 6.94-11.986 11.189zm25.702-3.246l30.735 17.797-16.49 14.82-14.245-32.617zm-22.148-21.158l55.217-32.393-.058 64.334-55.159-31.941zm55.296-121.152l-56.664-32.714 56.746-58.973-.082 91.687zm-34.262 23.861l-24.589 13.971V85.881l24.589 42.361zm-31.8 128.426l-13.662 12.752 13.662-28.17v15.418zm-26.641 68.328l-19.376 11.141 17.832-36.769 1.544 25.628zm92.418 97.895l-.064 72.009-30.711-53.453 30.775-18.556zM236.38 286.272l15.712-14.121-.044 49.996-15.668-35.875zm-106.732 71.546l4.018 33.734-28.303 16.34 24.285-50.074z" fill="#acabb1"/>
    <path d="M256.41 183.697l-138.454-13.322 72.717-18.473a3.605 3.605 0 1 0-1.775-6.989l-33.957 8.627 102.419-39.421a3.605 3.605 0 1 0-2.588-6.73l-144.465 55.605 82.116-88.047a3.605 3.605 0 1 0-5.273-4.917l-92.792 99.493c-.05.055-.089.115-.135.172-.068.083-.138.164-.199.252-.06.088-.11.179-.162.271-.048.085-.099.169-.14.259-.045.099-.08.202-.116.304-.032.091-.067.178-.092.271-.029.11-.045.223-.065.334-.015.09-.035.177-.043.269a3.659 3.659 0 0 0-.005.419c.002.061-.007.12-.002.181a3.45 3.45 0 0 0 .105.63c.021.081.056.156.082.235.039.116.073.234.124.346.059.131.134.251.208.373.032.053.054.107.089.159l.005.006c.151.224.333.422.53.606.049.046.101.089.153.132.166.139.344.262.534.369.044.025.086.055.13.077.231.117.474.21.73.277.054.014.109.02.164.031.131.028.261.061.397.074l159.072 15.306a3.605 3.605 0 0 0 .688-7.179z" fill="#c6c5cb"/>
</svg>
