<svg version="1.1" xmlns="http://www.w3.org/2000/svg" x="0" y="0" viewBox="0 0 512 512" xml:space="preserve">
    <path fill="#898890" d="M22.822 374.085l206.989 119.83 259.368-149.212L281.75 224.501z"/>
    <path fill="#acabb1" d="M230.092 413.975l171.881-99.236V199.53l-171.881 99.139z"/>
    <path fill="#e0e0e2" d="M22.822 374.085v18.111L229.811 512v-18.085z"/>
    <g fill="#d8d8da">
        <path d="M229.811 512l259.368-147.725v-19.572L229.811 493.915zM302.513 427.179v-13.293-.05h-.001c-.009-3.069-2.024-6.139-6.048-8.475-8.075-4.686-21.305-4.697-29.401-.023-4.049 2.337-6.075 5.419-6.078 8.498v13.337c-.005 3.079 2.015 6.159 6.058 8.493 8.085 4.669 21.316 4.678 29.401.023 4.056-2.334 6.077-5.421 6.069-8.51z"/>
    </g>
    <path d="M267.044 422.326c-8.085-4.669-8.077-12.312.02-16.986 8.096-4.674 21.326-4.664 29.401.023 8.075 4.686 8.065 12.331-.02 16.986-8.085 4.654-21.316 4.644-29.401-.023z" fill="#e0e0e2"/>
    <g fill="#d8d8da">
        <path d="M294.043 413.837V297.601h-24.587v116.236c-.002 1.822 1.193 3.645 3.587 5.026 4.787 2.764 12.62 2.77 17.407.014 2.402-1.384 3.598-3.212 3.593-5.04zM354.451 396.856v-13.292-.05h-.001c-.009-3.069-2.024-6.139-6.048-8.475-8.075-4.686-21.305-4.697-29.401-.023-4.049 2.337-6.075 5.419-6.078 8.498v13.337c-.005 3.079 2.015 6.159 6.058 8.493 8.085 4.668 21.316 4.678 29.401.023 4.056-2.334 6.078-5.422 6.069-8.511z"/>
    </g>
    <path d="M318.982 392.003c-8.085-4.669-8.077-12.312.02-16.986 8.097-4.674 21.326-4.664 29.401.023 8.075 4.687 8.065 12.331-.02 16.986-8.085 4.655-21.316 4.645-29.401-.023z" fill="#e0e0e2"/>
    <g fill="#d8d8da">
        <path d="M345.981 383.514l.001-116.236h-24.587v116.236c-.002 1.822 1.193 3.645 3.587 5.026 4.787 2.764 12.62 2.77 17.407.014 2.401-1.384 3.597-3.211 3.592-5.04zM406.389 366.534v-13.293-.05h-.001c-.009-3.069-2.024-6.139-6.048-8.475-8.075-4.686-21.305-4.697-29.401-.023-4.049 2.337-6.075 5.419-6.078 8.498v13.337c-.005 3.079 2.015 6.159 6.058 8.493 8.085 4.669 21.316 4.678 29.401.023 4.056-2.335 6.078-5.421 6.069-8.51z"/>
    </g>
    <path d="M370.92 361.681c-8.085-4.669-8.077-12.312.02-16.986 8.097-4.674 21.326-4.664 29.401.023 8.075 4.686 8.065 12.331-.02 16.986-8.085 4.654-21.316 4.644-29.401-.023z" fill="#e0e0e2"/>
    <g fill="#d8d8da">
        <path d="M397.919 353.191l.001-116.236h-24.587v116.236c-.002 1.822 1.193 3.645 3.587 5.026 4.787 2.764 12.62 2.77 17.407.014 2.401-1.383 3.597-3.211 3.592-5.04zM458.327 336.211v-13.293-.05h-.001c-.009-3.069-2.024-6.139-6.048-8.475-8.075-4.686-21.305-4.697-29.401-.023-4.049 2.337-6.075 5.419-6.078 8.498v13.337c-.005 3.079 2.015 6.159 6.058 8.493 8.085 4.667 21.316 4.678 29.401.023 4.056-2.334 6.078-5.421 6.069-8.51z"/>
    </g>
    <path d="M422.858 331.357c-8.085-4.669-8.077-12.312.02-16.986 8.097-4.674 21.326-4.664 29.401.023 8.075 4.686 8.065 12.331-.02 16.986-8.085 4.656-21.316 4.646-29.401-.023z" fill="#e0e0e2"/>
    <g fill="#d8d8da">
        <path d="M449.857 322.868V206.632H425.27v116.236c-.002 1.822 1.193 3.645 3.587 5.026 4.787 2.764 12.62 2.77 17.407.014 2.402-1.383 3.598-3.211 3.593-5.04zM95.833 367.342v-13.293-.05h-.001c-.009-3.069-2.024-6.139-6.048-8.475-8.075-4.686-21.305-4.697-29.401-.023-4.049 2.337-6.075 5.419-6.078 8.498v13.337c-.005 3.079 2.015 6.159 6.058 8.493 8.085 4.668 21.316 4.678 29.401.023 4.056-2.335 6.077-5.423 6.069-8.51z"/>
    </g>
    <path d="M60.363 362.487c-8.085-4.669-8.077-12.312.02-16.986 8.097-4.674 21.326-4.664 29.401.023 8.075 4.686 8.065 12.331-.02 16.986s-21.316 4.646-29.401-.023z" fill="#e0e0e2"/>
    <g fill="#d8d8da">
        <path d="M87.362 353.999l.001-116.236H62.776v116.236c-.002 1.822 1.193 3.645 3.587 5.026 4.787 2.764 12.62 2.77 17.407.014 2.401-1.384 3.598-3.212 3.592-5.04zM151.638 341.872V328.58v-.05h-.001c-.009-3.069-2.024-6.139-6.048-8.475-8.075-4.686-21.305-4.697-29.401-.023-4.049 2.337-6.075 5.419-6.078 8.498v13.337c-.005 3.079 2.015 6.159 6.058 8.493 8.085 4.668 21.316 4.678 29.401.023 4.056-2.336 6.077-5.423 6.069-8.511z"/>
    </g>
    <path d="M116.168 337.017c-8.085-4.669-8.077-12.312.02-16.986 8.097-4.674 21.326-4.664 29.401.023 8.075 4.686 8.065 12.331-.02 16.986s-21.315 4.646-29.401-.023z" fill="#e0e0e2"/>
    <path d="M143.167 328.528l.001-116.236h-24.587v116.236c-.002 1.822 1.193 3.645 3.587 5.026 4.787 2.764 12.62 2.77 17.407.014 2.401-1.382 3.597-3.211 3.592-5.04z" fill="#d8d8da"/>
    <path fill="#c6c5cb" d="M125.53 354.676V238.3l104.562 60.369v115.306z"/>
    <path d="M147.413 397.395v-13.292-.05h-.001c-.009-3.069-2.024-6.139-6.048-8.475-8.075-4.686-21.305-4.697-29.401-.023-4.049 2.337-6.075 5.419-6.078 8.498v13.337c-.005 3.079 2.015 6.159 6.058 8.493 8.085 4.669 21.316 4.678 29.401.023 4.057-2.335 6.078-5.423 6.069-8.511z" fill="#d8d8da"/>
    <path d="M111.944 392.541c-8.085-4.669-8.077-12.312.02-16.986 8.096-4.674 21.326-4.664 29.401.023 8.075 4.687 8.065 12.331-.02 16.986-8.085 4.655-21.316 4.645-29.401-.023z" fill="#e0e0e2"/>
    <g fill="#d8d8da">
        <path d="M138.943 384.052l.001-116.236h-24.587v116.236c-.002 1.822 1.193 3.645 3.587 5.026 4.787 2.764 12.62 2.77 17.407.014 2.401-1.383 3.598-3.211 3.592-5.04zM250.575 457.503v-13.292-.05h-.001c-.009-3.069-2.024-6.139-6.048-8.475-8.075-4.686-21.305-4.697-29.401-.023-4.049 2.337-6.075 5.419-6.078 8.498v13.337c-.005 3.079 2.015 6.159 6.058 8.493 8.085 4.669 21.316 4.678 29.401.023 4.056-2.336 6.077-5.423 6.069-8.511z"/>
    </g>
    <path d="M215.106 452.648c-8.085-4.669-8.077-12.312.02-16.986 8.096-4.674 21.326-4.664 29.401.023 8.075 4.687 8.065 12.331-.02 16.986-8.085 4.655-21.316 4.646-29.401-.023z" fill="#e0e0e2"/>
    <path d="M242.105 444.159l.001-116.236h-24.587v116.236c-.002 1.822 1.193 3.645 3.587 5.026 4.787 2.764 12.62 2.77 17.407.014 2.401-1.384 3.597-3.211 3.592-5.04z" fill="#d8d8da"/>
    <path fill="#77767e" d="M161.001 374.792v-80.486l34.545 19.945-.308 79.957z"/>
    <path d="M198.994 427.449v-13.293-.05h-.001c-.009-3.069-2.024-6.139-6.048-8.475-8.075-4.686-21.305-4.697-29.401-.023-4.049 2.337-6.075 5.419-6.078 8.498v13.337c-.005 3.079 2.015 6.159 6.058 8.493 8.085 4.668 21.316 4.678 29.401.023 4.057-2.335 6.077-5.422 6.069-8.51z" fill="#d8d8da"/>
    <path d="M163.526 422.594c-8.085-4.669-8.077-12.312.02-16.986 8.097-4.674 21.326-4.664 29.401.023 8.075 4.686 8.065 12.331-.02 16.986-8.086 4.656-21.317 4.646-29.401-.023z" fill="#e0e0e2"/>
    <path d="M190.523 414.105l.001-116.236h-24.587v116.236c-.002 1.822 1.193 3.645 3.587 5.026 4.787 2.764 12.62 2.77 17.407.014 2.402-1.382 3.598-3.211 3.592-5.04z" fill="#d8d8da"/>
    <path fill="#e0e0e2" d="M40.093 207.848v19.944l207.271 119.669v-19.945z"/>
    <path fill="#c6c5cb" d="M264.637 317.544v19.944l-17.273 9.973v-19.945z"/>
    <path fill="#e0e0e2" d="M22.822 197.876l241.815 139.612-120.908-169.529z"/>
    <path fill="#c6c5cb" d="M45.698 201.112l94.407-23.359 94.407 132.371z"/>
    <path fill="#e0e0e2" d="M45.698 201.112l12.092-2.992 164.631 95.051 12.091 16.953z"/>
    <path fill="#57565c" d="M143.729 167.959l207.27-119.668L471.907 217.82l-207.27 119.668z"/>
    <path fill="#77767e" d="M22.822 197.876l207.27-119.668 120.907-29.917-207.27 119.668z"/>
    <path d="M345.192 94.803v-.054h-.002c.112-13.347-8.576-26.686-26.103-36.806-35.113-20.273-92.96-20.273-128.548 0-17.807 10.144-26.791 23.523-26.919 36.903v41.412c-.134 13.364 8.568 26.729 26.138 36.873 35.157 20.298 93.004 20.298 128.548 0 17.763-10.145 26.736-23.51 26.886-36.873h.001v-.012l-.001-41.443z" fill="#d8d8da"/>
    <path d="M226.875 171.866a139.999 139.999 0 0 1-8.195-1.707v-20.57c2.691.647 5.425 1.215 8.195 1.707v20.57zm-21.085-26.115a106.287 106.287 0 0 1-8.195-3.323v20.57a106.69 106.69 0 0 0 8.195 3.323v-20.57zm42.171 7.769a158.043 158.043 0 0 1-8.195-.514v20.57c2.719.242 5.452.413 8.195.514v-20.57zm-63.257-18.295c-3.066-2.093-5.799-4.291-8.195-6.579v20.57c2.396 2.287 5.129 4.487 8.195 6.579v-20.57zm147.599-7.089c-2.395 2.304-5.133 4.52-8.195 6.632v20.57c3.062-2.112 5.8-4.328 8.195-6.632v-20.57zm-21.085 13.928a106.538 106.538 0 0 1-8.195 3.371v20.57a106.703 106.703 0 0 0 8.195-3.371v-20.57zm-21.086 7.287a139.323 139.323 0 0 1-8.195 1.763v20.57c2.77-.51 5.504-1.097 8.195-1.763v-20.57zm-21.086 3.556c-2.719.26-5.452.451-8.195.571v20.57c2.743-.119 5.476-.31 8.195-.571v-20.57z" fill="#77767e"/>
    <path d="M189.757 131.708c-35.157-20.298-34.806-53.493.782-73.766s93.434-20.273 128.548 0 34.762 53.468-.782 73.766-93.389 20.299-128.548 0z" fill="#e0e0e2"/>
    <path d="M333.809 93.262c-.044 11.762-7.899 23.539-23.526 32.456-31.09 17.76-81.698 17.76-112.456 0-15.117-8.728-22.726-20.17-22.857-31.671-.015-.204-.015-.406-.015-.596 0-43.856 35.564-79.418 79.433-79.418 43.652 0 79.085 35.229 79.405 78.795.016.143.016.288.016.434z" fill="#57565c"/>
    <path d="M311.905 89.74c-.036 9.535-6.404 19.082-19.07 26.309-25.203 14.396-66.227 14.396-91.159 0-12.254-7.075-18.422-16.35-18.528-25.674-.011-.165-.011-.329-.011-.483 0-35.55 28.828-64.378 64.39-64.378 35.385 0 64.108 28.558 64.367 63.873.011.118.011.236.011.353z" fill="#77767e"/>
    <path d="M258.235 2.197v-.002c.005-.563-.362-1.125-1.101-1.553-1.481-.855-3.921-.855-5.422 0-.751.427-1.13.993-1.136 1.557v34.289c-.005.563.362 1.127 1.102 1.555 1.483.856 3.922.856 5.422 0 .749-.427 1.127-.992 1.134-1.555V2.197h.001z" fill="#d8d8da"/>
    <path d="M251.679 3.753c-1.483-.856-1.468-2.256.033-3.112 1.501-.855 3.941-.855 5.422 0 1.481.855 1.466 2.255-.033 3.112-1.499.857-3.939.857-5.422 0z" fill="#e0e0e2"/>
</svg>